<?xml version="1.0" encoding="UTF-8" standalone="no"?>
<!-- Created with Inkscape (http://www.inkscape.org/) -->

<svg
   xmlns:dc="http://purl.org/dc/elements/1.1/"
   xmlns:cc="http://creativecommons.org/ns#"
   xmlns:rdf="http://www.w3.org/1999/02/22-rdf-syntax-ns#"
   xmlns:svg="http://www.w3.org/2000/svg"
   xmlns="http://www.w3.org/2000/svg"
   xmlns:sodipodi="http://sodipodi.sourceforge.net/DTD/sodipodi-0.dtd"
   xmlns:inkscape="http://www.inkscape.org/namespaces/inkscape"
   width="141.83823mm"
   height="72.023125mm"
   viewBox="0 0 141.83823 72.023125"
   version="1.1"
   id="svg19"
   inkscape:version="0.92.2 (5c3e80d, 2017-08-06)"
   sodipodi:docname="logo_negated.svg">
  <defs
     id="defs13" />
  <sodipodi:namedview
     id="base"
     pagecolor="#ffffff"
     bordercolor="#666666"
     borderopacity="1.0"
     inkscape:pageopacity="0.0"
     inkscape:pageshadow="2"
     inkscape:zoom="1.979899"
     inkscape:cx="158.49412"
     inkscape:cy="139.67423"
     inkscape:document-units="mm"
     inkscape:current-layer="layer1"
     showgrid="false"
     inkscape:window-width="1920"
     inkscape:window-height="1005"
     inkscape:window-x="0"
     inkscape:window-y="0"
     inkscape:window-maximized="1" />
  <metadata
     id="metadata16">
    <rdf:RDF>
      <cc:Work
         rdf:about="">
        <dc:format>image/svg+xml</dc:format>
        <dc:type
           rdf:resource="http://purl.org/dc/dcmitype/StillImage" />
        <dc:title></dc:title>
      </cc:Work>
    </rdf:RDF>
  </metadata>
  <g
     inkscape:label="Layer 1"
     inkscape:groupmode="layer"
     id="layer1"
     transform="translate(-246.95886,-68.641695)">
    <g
       transform="matrix(0.07973194,0,0,0.07973194,246.9574,68.810984)"
       id="g861"
       style="fill:#ffffff;fill-opacity:1">
      <g
         aria-label="arquitectures"
         style="font-style:italic;font-variant:normal;font-weight:bold;font-stretch:normal;font-size:80px;line-height:1.25;font-family:'Courier New';-inkscape-font-specification:'Courier New Bold Italic';font-variant-ligatures:normal;font-variant-caps:normal;font-variant-numeric:normal;font-feature-settings:normal;text-align:start;letter-spacing:0px;word-spacing:0px;writing-mode:lr-tb;text-anchor:start;fill:#ffffff;fill-opacity:1;stroke:none"
         id="text9">
        <path
           d="m 81.138161,561.87018 v -13.78581 q -20.849609,17.54557 -44.547525,17.54557 -17.203776,0 -26.8880202,-8.65885 -9.68424458,-8.77279 -9.68424458,-21.41927 0,-13.89974 12.76041678,-24.26758 12.760416,-10.36784 37.255858,-10.36784 6.608073,0 14.355469,0.91146 7.747395,0.79753 16.748046,2.62044 v -15.49479 q 0,-7.86132 -7.291666,-13.67187 -7.291667,-5.81055 -21.875,-5.81055 -11.165364,0 -31.331379,6.49414 -3.645834,1.13933 -4.671224,1.13933 -1.822917,0 -3.190104,-1.36719 -1.253256,-1.36719 -1.253256,-3.41797 0,-1.93685 1.139323,-3.07617 1.595052,-1.70899 12.874349,-4.67123 17.773437,-4.78515 26.88802,-4.78515 18.115234,0 28.255208,9.00065 10.139974,8.88672 10.139974,20.16601 v 63.34636 h 12.760414 q 3.5319,0 5.01302,1.36718 1.48112,1.25326 1.48112,3.41797 0,2.05078 -1.48112,3.41797 -1.48112,1.36719 -5.01302,1.36719 z m 0,-47.6237 q -6.722005,-1.93685 -14.241536,-2.84831 -7.519531,-0.91145 -15.836588,-0.91145 -20.849609,0 -32.584635,9.00065 -8.8867185,6.722 -8.8867185,16.06445 0,8.65885 6.7220055,14.58333 6.835937,5.92448 19.824218,5.92448 12.418619,0 23.014322,-4.89909 10.709635,-5.01302 21.988932,-15.83659 z"
           style="font-style:normal;font-variant:normal;font-weight:normal;font-stretch:normal;font-size:233.33332825px;font-family:'Courier New';-inkscape-font-specification:'Courier New';fill:#ffffff;fill-opacity:1"
           id="path822" />
        <path
           d="m 182.08216,463.20482 v 24.15364 q 18.6849,-16.86198 27.91341,-21.64713 9.34245,-4.89909 17.20378,-4.89909 8.54492,0 15.83659,5.81054 7.4056,5.69662 7.4056,8.65886 0,2.16471 -1.48112,3.64583 -1.36719,1.36719 -3.5319,1.36719 -1.13933,0 -1.93685,-0.3418 -0.79753,-0.45573 -2.96224,-2.62044 -3.98763,-3.98763 -6.94987,-5.46875 -2.96224,-1.48112 -5.81055,-1.48112 -6.26628,0 -15.15299,5.01302 -8.77279,5.01302 -30.53386,24.49544 v 52.40886 h 42.38281 q 3.5319,0 5.01302,1.36718 1.48112,1.25326 1.48112,3.41797 0,2.05078 -1.48112,3.41797 -1.48112,1.36719 -5.01302,1.36719 H 149.3836 q -3.41797,0 -4.89909,-1.25326 -1.48112,-1.36718 -1.48112,-3.41797 0,-1.93684 1.36718,-3.1901 1.48112,-1.36719 5.01303,-1.36719 h 23.12825 v -79.7526 h -17.6595 q -3.41797,0 -4.89909,-1.36719 -1.48112,-1.36718 -1.48112,-3.5319 0,-2.05078 1.36718,-3.41797 1.48112,-1.36718 5.01303,-1.36718 z"
           style="font-style:normal;font-variant:normal;font-weight:normal;font-stretch:normal;font-size:233.33332825px;font-family:'Courier New';-inkscape-font-specification:'Courier New';fill:#ffffff;fill-opacity:1"
           id="path824" />
        <path
           d="m 370.52616,480.63646 v -17.43164 h 22.44466 q 3.5319,0 5.01302,1.36718 1.48112,1.36719 1.48112,3.5319 0,2.05079 -1.48112,3.41797 -1.48112,1.36719 -5.01302,1.36719 h -12.76041 v 123.38867 h 12.76041 q 3.5319,0 5.01302,1.25325 1.48112,1.36719 1.48112,3.53191 0,2.05078 -1.48112,3.41796 -1.48112,1.36719 -5.01302,1.36719 h -45.57291 q -3.41797,0 -4.89909,-1.36719 -1.48112,-1.25325 -1.48112,-3.41796 0,-2.16472 1.48112,-3.53191 1.48112,-1.25325 4.89909,-1.25325 h 23.12825 v -57.64974 q -15.83659,20.84961 -41.58528,20.84961 -21.41927,0 -36.23047,-14.58333 -14.69727,-14.69727 -14.69727,-35.31901 0,-20.73568 14.69727,-35.20508 14.8112,-14.58333 36.45833,-14.58333 25.52083,0 41.35742,20.84961 z m 0,28.9388 q 0,-16.52018 -12.07682,-28.25521 -12.07682,-11.84896 -29.39453,-11.84896 -17.31771,0 -29.39453,11.84896 -12.07683,11.73503 -12.07683,28.25521 0,16.52018 12.07683,28.36914 12.07682,11.84896 29.39453,11.84896 17.31771,0 29.39453,-11.84896 12.07682,-11.84896 12.07682,-28.36914 z"
           style="font-style:normal;font-variant:normal;font-weight:normal;font-stretch:normal;font-size:233.33332825px;font-family:'Courier New';-inkscape-font-specification:'Courier New';fill:#ffffff;fill-opacity:1"
           id="path826" />
        <path
           d="m 506.10558,561.87018 v -14.01367 q -19.59636,17.77343 -42.38281,17.77343 -14.01367,0 -21.30534,-7.63346 -9.45638,-10.02604 -9.45638,-23.35612 v -61.7513 H 420.0867 q -3.41797,0 -4.89909,-1.36719 -1.48112,-1.36718 -1.48112,-3.5319 0,-2.05078 1.48112,-3.41797 1.48112,-1.36718 4.89909,-1.36718 h 22.44466 v 71.43554 q 0,9.34245 5.92448,15.38086 5.92448,6.03841 14.8112,6.03841 23.35612,0 42.83854,-21.41927 v -61.7513 h -17.65951 q -3.41797,0 -4.89908,-1.36719 -1.48112,-1.36718 -1.48112,-3.5319 0,-2.05078 1.48112,-3.41797 1.48111,-1.36718 4.89908,-1.36718 h 27.22982 v 89.09505 h 8.08919 q 3.41797,0 4.89909,1.36718 1.48112,1.25326 1.48112,3.41797 0,2.05078 -1.48112,3.41797 -1.48112,1.36719 -4.89909,1.36719 z"
           style="font-style:normal;font-variant:normal;font-weight:normal;font-stretch:normal;font-size:233.33332825px;font-family:'Courier New';-inkscape-font-specification:'Courier New';fill:#ffffff;fill-opacity:1"
           id="path828" />
        <path
           d="m 617.98708,414.1 v 24.72331 h -14.1276 V 414.1 Z m 0.3418,49.10482 v 89.09505 h 37.59765 q 3.5319,0 5.01302,1.36718 1.48112,1.25326 1.48112,3.41797 0,2.05078 -1.48112,3.41797 -1.48112,1.36719 -5.01302,1.36719 h -84.76562 q -3.41797,0 -4.89909,-1.36719 -1.48112,-1.36719 -1.48112,-3.41797 0,-2.16471 1.48112,-3.41797 1.48112,-1.36718 4.89909,-1.36718 h 37.59765 v -79.41081 h -27.91341 q -3.41797,0 -5.01302,-1.36719 -1.48112,-1.36718 -1.48112,-3.41797 0,-2.16471 1.48112,-3.5319 1.48112,-1.36718 5.01302,-1.36718 z"
           style="font-style:normal;font-variant:normal;font-weight:normal;font-stretch:normal;font-size:233.33332825px;font-family:'Courier New';-inkscape-font-specification:'Courier New';fill:#ffffff;fill-opacity:1"
           id="path830" />
        <path
           d="m 733.51438,463.20482 h 51.95313 q 3.41797,0 4.89909,1.36718 1.48111,1.36719 1.48111,3.5319 0,2.05079 -1.48111,3.41797 -1.48112,1.36719 -4.89909,1.36719 h -51.95313 v 63.68815 q 0,8.31706 6.60808,13.89974 6.722,5.58268 19.59635,5.58268 9.68424,0 20.96354,-2.84831 11.2793,-2.96224 17.54557,-6.60807 2.27865,-1.48112 3.75977,-1.48112 1.82292,0 3.1901,1.48112 1.36719,1.36719 1.36719,3.30404 0,1.70898 -1.48112,3.1901 -3.64583,3.75977 -17.77344,8.20313 -14.01367,4.32942 -26.88802,4.32942 -16.74804,0 -26.66015,-7.86132 -9.91211,-7.86133 -9.91211,-21.19141 v -63.68815 h -17.65951 q -3.41797,0 -4.89908,-1.36719 -1.48112,-1.36718 -1.48112,-3.5319 0,-2.05078 1.48112,-3.41797 1.48111,-1.36718 4.89908,-1.36718 h 17.65951 v -28.25521 q 0,-3.41797 1.36719,-4.89909 1.36718,-1.48112 3.41796,-1.48112 2.16472,0 3.53191,1.48112 1.36718,1.48112 1.36718,4.89909 z"
           style="font-style:normal;font-variant:normal;font-weight:normal;font-stretch:normal;font-size:233.33332825px;font-family:'Courier New';-inkscape-font-specification:'Courier New';fill:#ffffff;fill-opacity:1"
           id="path832" />
        <path
           d="m 944.8588,514.81614 h -97.52604 q 2.50651,18.57097 15.49479,29.96419 13.10222,11.2793 32.35677,11.2793 10.70964,0 22.44467,-3.5319 11.73502,-3.5319 19.14062,-9.34245 2.16471,-1.70898 3.75977,-1.70898 1.82291,0 3.1901,1.48112 1.36719,1.36719 1.36719,3.30403 0,1.93685 -1.82292,3.75977 -5.46875,5.69661 -19.48242,10.70964 -13.89974,4.89908 -28.59701,4.89908 -24.60937,0 -41.12955,-16.06445 -16.40625,-16.17838 -16.40625,-39.07877 0,-20.84961 15.38086,-35.77474 15.49479,-14.92513 38.28125,-14.92513 23.47005,0 38.62304,15.38086 15.153,15.26692 14.92513,39.64843 z m -9.68424,-9.68424 q -2.84831,-15.83659 -15.03906,-25.7487 -12.07683,-9.91211 -28.82487,-9.91211 -16.74805,0 -28.82487,9.79818 -12.07683,9.79818 -15.03906,25.86263 z"
           style="font-style:normal;font-variant:normal;font-weight:normal;font-stretch:normal;font-size:233.33332825px;font-family:'Courier New';-inkscape-font-specification:'Courier New';fill:#ffffff;fill-opacity:1"
           id="path834" />
        <path
           d="m 1072.9187,472.88906 v -3.1901 q 0,-3.5319 1.3672,-5.01302 1.3672,-1.48112 3.418,-1.48112 2.1647,0 3.5319,1.48112 1.3672,1.48112 1.3672,5.01302 v 21.64713 q -0.114,3.5319 -1.4812,5.01302 -1.2532,1.48112 -3.4179,1.48112 -1.9369,0 -3.3041,-1.25325 -1.2532,-1.36719 -1.4811,-4.44336 -0.6836,-8.0892 -10.7096,-15.38086 -9.9121,-7.29167 -26.7741,-7.29167 -21.3053,0 -32.3568,13.33008 -11.05141,13.33008 -11.05141,30.53385 0,18.57097 12.19071,30.64779 12.1908,12.07682 31.5593,12.07682 11.1654,0 22.6725,-4.10156 11.6211,-4.10156 20.9636,-13.21615 2.3925,-2.27864 4.2155,-2.27864 1.9368,0 3.1901,1.36719 1.3671,1.25325 1.3671,3.1901 0,4.89909 -11.5071,12.41862 -18.571,12.19075 -41.3574,12.19075 -23.1283,0 -38.05342,-14.69726 -14.8112,-14.8112 -14.8112,-37.48372 0,-23.12826 15.153,-38.39519 15.26692,-15.26692 38.39522,-15.26692 21.9889,0 36.914,13.10221 z"
           style="font-style:normal;font-variant:normal;font-weight:normal;font-stretch:normal;font-size:233.33332825px;font-family:'Courier New';-inkscape-font-specification:'Courier New';fill:#ffffff;fill-opacity:1"
           id="path836" />
        <path
           d="m 1153.2409,463.20482 h 51.9532 q 3.4179,0 4.8991,1.36718 1.4811,1.36719 1.4811,3.5319 0,2.05079 -1.4811,3.41797 -1.4812,1.36719 -4.8991,1.36719 h -51.9532 v 63.68815 q 0,8.31706 6.6081,13.89974 6.722,5.58268 19.5964,5.58268 9.6842,0 20.9635,-2.84831 11.2793,-2.96224 17.5456,-6.60807 2.2786,-1.48112 3.7598,-1.48112 1.8229,0 3.1901,1.48112 1.3671,1.36719 1.3671,3.30404 0,1.70898 -1.4811,3.1901 -3.6458,3.75977 -17.7734,8.20313 -14.0137,4.32942 -26.888,4.32942 -16.7481,0 -26.6602,-7.86132 -9.9121,-7.86133 -9.9121,-21.19141 v -63.68815 h -17.6595 q -3.418,0 -4.8991,-1.36719 -1.4811,-1.36718 -1.4811,-3.5319 0,-2.05078 1.4811,-3.41797 1.4811,-1.36718 4.8991,-1.36718 h 17.6595 v -28.25521 q 0,-3.41797 1.3672,-4.89909 1.3672,-1.48112 3.418,-1.48112 2.1647,0 3.5319,1.48112 1.3671,1.48112 1.3671,4.89909 z"
           style="font-style:normal;font-variant:normal;font-weight:normal;font-stretch:normal;font-size:233.33332825px;font-family:'Courier New';-inkscape-font-specification:'Courier New';fill:#ffffff;fill-opacity:1"
           id="path838" />
        <path
           d="m 1345.5586,561.87018 v -14.01367 q -19.5963,17.77343 -42.3828,17.77343 -14.0137,0 -21.3053,-7.63346 -9.4564,-10.02604 -9.4564,-23.35612 v -61.7513 h -12.8744 q -3.4179,0 -4.8991,-1.36719 -1.4811,-1.36718 -1.4811,-3.5319 0,-2.05078 1.4811,-3.41797 1.4812,-1.36718 4.8991,-1.36718 h 22.4447 v 71.43554 q 0,9.34245 5.9245,15.38086 5.9245,6.03841 14.8112,6.03841 23.3561,0 42.8385,-21.41927 v -61.7513 h -17.6595 q -3.418,0 -4.8991,-1.36719 -1.4811,-1.36718 -1.4811,-3.5319 0,-2.05078 1.4811,-3.41797 1.4811,-1.36718 4.8991,-1.36718 h 27.2298 v 89.09505 h 8.0892 q 3.418,0 4.8991,1.36718 1.4811,1.25326 1.4811,3.41797 0,2.05078 -1.4811,3.41797 -1.4811,1.36719 -4.8991,1.36719 z"
           style="font-style:normal;font-variant:normal;font-weight:normal;font-stretch:normal;font-size:233.33332825px;font-family:'Courier New';-inkscape-font-specification:'Courier New';fill:#ffffff;fill-opacity:1"
           id="path840" />
        <path
           d="m 1441.2617,463.20482 v 24.15364 q 18.6849,-16.86198 27.9134,-21.64713 9.3425,-4.89909 17.2038,-4.89909 8.5449,0 15.8366,5.81054 7.4056,5.69662 7.4056,8.65886 0,2.16471 -1.4811,3.64583 -1.3672,1.36719 -3.532,1.36719 -1.1393,0 -1.9368,-0.3418 -0.7975,-0.45573 -2.9622,-2.62044 -3.9877,-3.98763 -6.9499,-5.46875 -2.9622,-1.48112 -5.8106,-1.48112 -6.2662,0 -15.1529,5.01302 -8.7728,5.01302 -30.5339,24.49544 v 52.40886 h 42.3828 q 3.5319,0 5.013,1.36718 1.4811,1.25326 1.4811,3.41797 0,2.05078 -1.4811,3.41797 -1.4811,1.36719 -5.013,1.36719 h -75.0814 q -3.4179,0 -4.8991,-1.25326 -1.4811,-1.36718 -1.4811,-3.41797 0,-1.93684 1.3672,-3.1901 1.4811,-1.36719 5.013,-1.36719 h 23.1283 v -79.7526 h -17.6595 q -3.418,0 -4.8991,-1.36719 -1.4811,-1.36718 -1.4811,-3.5319 0,-2.05078 1.3672,-3.41797 1.4811,-1.36718 5.013,-1.36718 z"
           style="font-style:normal;font-variant:normal;font-weight:normal;font-stretch:normal;font-size:233.33332825px;font-family:'Courier New';-inkscape-font-specification:'Courier New';fill:#ffffff;fill-opacity:1"
           id="path842" />
        <path
           d="m 1644.4031,514.81614 h -97.5261 q 2.5065,18.57097 15.4948,29.96419 13.1022,11.2793 32.3568,11.2793 10.7096,0 22.4446,-3.5319 11.7351,-3.5319 19.1407,-9.34245 2.1647,-1.70898 3.7597,-1.70898 1.8229,0 3.1901,1.48112 1.3672,1.36719 1.3672,3.30403 0,1.93685 -1.8229,3.75977 -5.4687,5.69661 -19.4824,10.70964 -13.8998,4.89908 -28.597,4.89908 -24.6094,0 -41.1296,-16.06445 -16.4062,-16.17838 -16.4062,-39.07877 0,-20.84961 15.3808,-35.77474 15.4948,-14.92513 38.2813,-14.92513 23.47,0 38.623,15.38086 15.153,15.26692 14.9252,39.64843 z m -9.6843,-9.68424 q -2.8483,-15.83659 -15.0391,-25.7487 -12.0768,-9.91211 -28.8248,-9.91211 -16.7481,0 -28.8249,9.79818 -12.0768,9.79818 -15.0391,25.86263 z"
           style="font-style:normal;font-variant:normal;font-weight:normal;font-stretch:normal;font-size:233.33332825px;font-family:'Courier New';-inkscape-font-specification:'Courier New';fill:#ffffff;fill-opacity:1"
           id="path844" />
        <path
           d="m 1764.1459,469.47109 q 0,-3.30403 1.3671,-4.78515 1.3672,-1.48112 3.418,-1.48112 2.1647,0 3.5319,1.48112 1.3672,1.48112 1.3672,5.01302 v 16.40625 q 0,3.41796 -1.3672,4.89908 -1.3672,1.48112 -3.5319,1.48112 -1.9368,0 -3.304,-1.25325 -1.2533,-1.25326 -1.4811,-4.10156 -0.6836,-6.83594 -7.0639,-11.2793 -9.3424,-6.38021 -24.7233,-6.38021 -16.0644,0 -24.9511,6.49414 -6.722,4.89909 -6.722,10.9375 0,6.83594 7.9752,11.39323 5.4688,3.1901 20.7357,4.89909 19.9382,2.16471 27.6855,4.89909 11.0515,3.98763 16.4063,11.05143 5.4687,7.0638 5.4687,15.26693 0,12.19075 -11.735,21.76106 -11.735,9.45638 -34.4075,9.45638 -22.6726,0 -37.142,-11.50716 0,3.8737 -0.4557,5.01302 -0.4557,1.13933 -1.709,1.93685 -1.1393,0.79753 -2.6204,0.79753 -2.0508,0 -3.418,-1.48112 -1.3672,-1.48112 -1.3672,-4.89909 v -19.71029 q 0,-3.41796 1.2533,-4.89908 1.3672,-1.48112 3.5319,-1.48112 2.0508,0 3.418,1.48112 1.4811,1.36718 1.4811,3.75976 0,5.24089 2.6204,8.77279 3.9877,5.46875 12.6465,9.11458 8.7728,3.5319 21.4193,3.5319 18.6849,0 27.7995,-6.94987 9.1145,-6.94987 9.1145,-14.69726 0,-8.88672 -9.2285,-14.24154 -9.3424,-5.35482 -27.2298,-7.17773 -17.7734,-1.82292 -25.5208,-4.78516 -7.7474,-2.96224 -12.0769,-8.88672 -4.3294,-5.92448 -4.3294,-12.76041 0,-12.30469 12.0768,-19.48243 12.0769,-7.29166 28.8249,-7.29166 19.8242,0 32.2429,9.68424 z"
           style="font-style:normal;font-variant:normal;font-weight:normal;font-stretch:normal;font-size:233.33332825px;font-family:'Courier New';-inkscape-font-specification:'Courier New';fill:#ffffff;fill-opacity:1"
           id="path846" />
      </g>
      <g
         aria-label="eixam"
         style="font-style:italic;font-variant:normal;font-weight:bold;font-stretch:normal;font-size:80px;line-height:1.25;font-family:'Courier New';-inkscape-font-specification:'Courier New Bold Italic';font-variant-ligatures:normal;font-variant-caps:normal;font-variant-numeric:normal;font-feature-settings:normal;text-align:start;letter-spacing:0px;word-spacing:0px;writing-mode:lr-tb;text-anchor:start;fill:#ffffff;fill-opacity:1;stroke:none"
         id="text9-0">
        <path
           d="M 310.10955,271.61896 H 67.007986 q 9.25,23.125 32.664063,37.28906 23.703121,14.16406 63.882811,14.16406 32.95313,0 87.58594,-14.16406 22.54687,-5.78125 31.21875,-5.78125 11.85156,0 19.94531,8.38281 8.09375,8.38282 8.09375,21.10157 0,11.5625 -8.67187,19.65625 -11.5625,10.69531 -56.36719,20.52343 -44.80469,9.53907 -86.14063,9.53907 -71.109371,0 -113.890621,-40.17969 -42.4921879,-40.17969 -42.4921879,-98.85938 0,-62.4375 45.9609379,-101.46093 46.25,-39.3125 106.375001,-39.3125 36.13281,0 66.19531,12.71875 30.35156,12.71875 45.09375,27.46093 20.8125,21.39063 34.39844,52.89844 9.25,21.96875 9.25,50.875 z m -65.61719,-59.25781 q -13.58594,-25.4375 -35.55469,-37.86719 -21.96875,-12.71875 -52.32031,-12.71875 -30.0625,0 -52.03125,12.71875 -21.968749,12.42969 -35.843749,37.86719 z"
           style="font-style:normal;font-variant:normal;font-weight:bold;font-stretch:normal;font-size:592px;font-family:'Courier New';-inkscape-font-specification:'Courier New Bold';fill:#ffffff;fill-opacity:1"
           id="path849" />
        <path
           d="M 537.60174,-2.12323 V 60.603333 H 467.07049 V -2.12323 Z m 8.09375,112.44531 v 203.21094 h 71.10937 q 21.39063,0 30.35156,8.38281 9.25,8.09375 9.25,21.39063 0,13.00781 -9.25,21.39062 -8.96093,8.09375 -30.35156,8.09375 H 415.3283 q -21.39063,0 -30.64063,-8.09375 -8.96093,-8.38281 -8.96093,-21.67968 0,-13.00782 8.96093,-21.10157 9.25,-8.38281 30.64063,-8.38281 h 71.10937 V 169.5799 h -47.69531 q -21.10156,0 -30.35156,-8.09375 -9.25,-8.38282 -9.25,-21.67969 0,-13.00781 8.96094,-21.10156 9.25,-8.38282 30.64062,-8.38282 z"
           style="font-style:normal;font-variant:normal;font-weight:bold;font-stretch:normal;font-size:592px;font-family:'Courier New';-inkscape-font-specification:'Courier New Bold';fill:#ffffff;fill-opacity:1"
           id="path851" />
        <path
           d="m 915.69549,236.35333 89.89841,77.17969 q 16.1875,0.86719 24.2813,9.25 8.0937,8.09375 8.0937,20.52344 0,13.00781 -9.25,21.39062 -8.9609,8.09375 -30.35154,8.09375 H 931.0158 q -21.39063,0 -30.64063,-8.09375 -8.96093,-8.38281 -8.96093,-21.96875 0,-10.40625 6.35937,-18.21093 6.64844,-8.09375 17.92188,-10.98438 l -44.22657,-38.15625 -45.09375,38.15625 q 13.58594,3.46875 19.36719,10.69531 6.07031,7.22657 6.07031,18.5 0,13.58594 -8.96093,21.96875 -8.96094,8.09375 -30.35157,8.09375 h -66.77343 q -21.39063,0 -30.64063,-8.09375 -8.96094,-8.38281 -8.96094,-21.67968 0,-12.14063 8.09375,-20.23438 8.09375,-8.38281 24.28125,-9.25 l 87.875,-77.46875 -77.75781,-66.48437 q -15.32031,-1.15625 -23.41406,-9.25 -7.80469,-8.38282 -7.80469,-20.52344 0,-13.00781 8.96094,-21.10156 9.25,-8.38282 30.64062,-8.38282 h 55.5 q 21.39063,0 30.35157,8.38282 9.25,8.09375 9.25,20.8125 0,17.05468 -16.1875,27.75 l 35.84375,29.77343 35.26562,-30.35156 q -15.89844,-11.27344 -15.89844,-26.01562 0,-13.875 8.96094,-21.96875 9.25,-8.38282 30.64063,-8.38282 h 54.92187 q 21.39059,0 30.35159,8.38282 9.25,8.09375 9.25,21.39062 0,11.85156 -8.0938,20.23438 -7.8047,8.09375 -23.41404,9.25 z"
           style="font-style:normal;font-variant:normal;font-weight:bold;font-stretch:normal;font-size:592px;font-family:'Courier New';-inkscape-font-specification:'Courier New Bold';fill:#ffffff;fill-opacity:1"
           id="path853" />
        <path
           d="m 1279.6252,372.79083 v -13.875 q -22.2578,11.85157 -49.1407,17.63282 -26.8828,6.07031 -48.8515,6.07031 -47.6953,0 -77.4688,-25.14844 -29.7734,-25.4375 -29.7734,-56.07812 0,-37.28907 37.8672,-69.08594 38.1562,-32.08594 105.2187,-32.08594 26.8828,0 62.1485,5.78125 v -14.16406 q 0,-13.29688 -11.5625,-21.67969 -11.2735,-8.38281 -43.3594,-8.38281 -26.3047,0 -68.2188,10.40625 -15.6093,3.75781 -24.2812,3.75781 -11.8516,0 -20.2344,-8.38281 -8.0937,-8.67188 -8.0937,-21.96875 0,-7.51563 2.8906,-13.00781 2.8906,-5.49219 8.0937,-8.67188 5.2032,-3.46875 21.6797,-8.09375 21.9688,-6.07031 44.8047,-9.53906 22.836,-3.75781 41.336,-3.75781 55.2109,0 85.5625,23.99218 30.6406,23.70313 30.6406,65.03907 v 121.98437 h 10.1172 q 21.3906,0 30.3515,8.38281 9.25,8.09375 9.25,21.39063 0,13.00781 -9.25,21.39062 -8.9609,8.09375 -30.3515,8.09375 z m 0,-106.08593 q -35.5547,-6.9375 -65.6172,-6.9375 -36.1328,0 -62.1485,17.63281 -16.1875,11.27344 -16.1875,22.83594 0,8.38281 7.8047,13.58593 14.4532,9.53907 39.6016,9.53907 21.3906,0 48.2734,-8.38282 27.1719,-8.38281 48.2735,-22.83593 z"
           style="font-style:normal;font-variant:normal;font-weight:bold;font-stretch:normal;font-size:592px;font-family:'Courier New';-inkscape-font-specification:'Courier New Bold';fill:#ffffff;fill-opacity:1"
           id="path855" />
        <path
           d="m 1489.7736,110.32208 v 16.76563 q 14.4531,-14.16406 26.0156,-19.36719 11.8516,-5.49219 27.1719,-5.49219 13.0078,0 25.7266,6.35938 12.7187,6.35937 24.8593,19.07812 15.3204,-12.71875 30.9297,-18.78906 15.8985,-6.35937 32.375,-6.35937 32.9532,0 53.4766,17.63281 27.1719,23.125 27.1719,60.70312 v 132.67969 q 18.5,0 27.4609,8.38281 8.9609,8.38282 8.9609,21.39063 0,13.00781 -8.9609,21.39062 -8.9609,8.09375 -30.3516,8.09375 h -56.3671 V 185.7674 q 0,-13.58594 -4.9141,-18.78907 -4.9141,-5.20312 -15.0313,-5.20312 -9.8281,0 -18.2109,5.20312 -10.6953,7.22657 -26.0156,27.17188 v 119.38281 q 18.5,0 27.4609,8.38281 8.961,8.38282 8.961,21.39063 0,13.00781 -8.961,21.39062 -8.9609,8.09375 -30.3515,8.09375 h -56.3672 V 185.7674 q 0,-13.29688 -5.2032,-18.5 -4.914,-5.49219 -15.0312,-5.49219 -10.4063,0 -20.5234,6.64844 -10.1172,6.35937 -24.2813,25.72656 v 119.38281 q 18.5,0 27.4609,8.38281 9.25,8.38282 9.25,21.39063 0,13.00781 -9.25,21.39062 -8.9609,8.09375 -30.3515,8.09375 h -53.4766 q -21.3906,0 -30.3515,-8.09375 -9.25,-8.38281 -9.25,-21.67968 0,-13.00782 8.9609,-21.10157 8.9609,-8.38281 27.75,-8.38281 V 169.5799 q -18.7891,0 -27.75,-8.38282 -8.9609,-8.38281 -8.9609,-21.39062 0,-13.00781 9.25,-21.10156 8.9609,-8.38282 30.3515,-8.38282 z"
           style="font-style:normal;font-variant:normal;font-weight:bold;font-stretch:normal;font-size:592px;font-family:'Courier New';-inkscape-font-specification:'Courier New Bold';fill:#ffffff;fill-opacity:1"
           id="path857" />
      </g>
      <g
         aria-label="cooperativa"
         style="font-style:italic;font-variant:normal;font-weight:bold;font-stretch:normal;font-size:80px;line-height:1.25;font-family:'Courier New';-inkscape-font-specification:'Courier New Bold Italic';font-variant-ligatures:normal;font-variant-caps:normal;font-variant-numeric:normal;font-feature-settings:normal;text-align:start;letter-spacing:0px;word-spacing:0px;writing-mode:lr-tb;text-anchor:start;fill:#ffffff;fill-opacity:1;stroke:none"
         id="text9-1">
        <path
           d="m 93.032605,768.23366 v -3.1901 q 0,-3.5319 1.367187,-5.01302 1.367188,-1.48112 3.417969,-1.48112 2.164714,0 3.531899,1.48112 1.36719,1.48112 1.36719,5.01302 v 21.64714 q -0.11393,3.5319 -1.48112,5.01302 -1.253255,1.48112 -3.417969,1.48112 -1.936849,0 -3.304036,-1.25326 -1.253255,-1.36719 -1.48112,-4.44336 -0.683594,-8.08919 -10.709635,-15.38086 -9.912109,-7.29166 -26.774088,-7.29166 -21.305338,0 -32.35677,13.33007 -11.051432,13.33008 -11.051432,30.53386 0,18.57096 12.190755,30.64778 12.190755,12.07683 31.559244,12.07683 11.165364,0 22.672525,-4.10157 11.621094,-4.10156 20.963541,-13.21614 2.392575,-2.27865 4.215495,-2.27865 1.93685,0 3.1901,1.36719 1.36719,1.25325 1.36719,3.1901 0,4.89909 -11.507159,12.41862 -18.570964,12.19076 -41.357421,12.19076 -23.128255,0 -38.053385,-14.69727 -14.8111976,-14.81119 -14.8111976,-37.48372 0,-23.12825 15.1529946,-38.39518 15.266927,-15.26693 38.395181,-15.26693 21.988932,0 36.914062,13.10221 z"
           style="font-style:normal;font-variant:normal;font-weight:normal;font-stretch:normal;font-size:233.33332825px;font-family:'Courier New';-inkscape-font-specification:'Courier New';letter-spacing:27px;word-spacing:0px;fill:#ffffff;fill-opacity:1"
           id="path860" />
        <path
           d="m 273.49939,808.10997 q 0,21.875 -15.72265,37.36979 -15.60873,15.49479 -37.71159,15.49479 -22.33073,0 -37.93945,-15.49479 -15.60873,-15.60873 -15.60873,-37.36979 0,-21.875 15.60873,-37.36979 15.60872,-15.60873 37.93945,-15.60873 22.10286,0 37.71159,15.49479 15.72265,15.49479 15.72265,37.48373 z m -9.68424,0 q 0,-18.00131 -12.87435,-30.64779 -12.76042,-12.64648 -30.98958,-12.64648 -18.22917,0 -31.10352,12.76041 -12.76042,12.64649 -12.76042,30.53386 0,17.77343 12.76042,30.53385 12.87435,12.76042 31.10352,12.76042 18.22916,0 30.98958,-12.64649 12.87435,-12.76041 12.87435,-30.64778 z"
           style="font-style:normal;font-variant:normal;font-weight:normal;font-stretch:normal;font-size:233.33332825px;font-family:'Courier New';-inkscape-font-specification:'Courier New';letter-spacing:27px;word-spacing:0px;fill:#ffffff;fill-opacity:1"
           id="path862" />
        <path
           d="m 440.40824,808.10997 q 0,21.875 -15.72266,37.36979 -15.60872,15.49479 -37.71159,15.49479 -22.33073,0 -37.93945,-15.49479 -15.60872,-15.60873 -15.60872,-37.36979 0,-21.875 15.60872,-37.36979 15.60872,-15.60873 37.93945,-15.60873 22.10287,0 37.71159,15.49479 15.72266,15.49479 15.72266,37.48373 z m -9.68425,0 q 0,-18.00131 -12.87435,-30.64779 -12.76041,-12.64648 -30.98958,-12.64648 -18.22917,0 -31.10352,12.76041 -12.76041,12.64649 -12.76041,30.53386 0,17.77343 12.76041,30.53385 12.87435,12.76042 31.10352,12.76042 18.22917,0 30.98958,-12.64649 12.87435,-12.76041 12.87435,-30.64778 z"
           style="font-style:normal;font-variant:normal;font-weight:normal;font-stretch:normal;font-size:233.33332825px;font-family:'Courier New';-inkscape-font-specification:'Courier New';letter-spacing:27px;word-spacing:0px;fill:#ffffff;fill-opacity:1"
           id="path864" />
        <path
           d="m 517.7663,758.54942 v 17.43164 q 8.54492,-10.36784 18.3431,-15.60872 9.79818,-5.24089 23.12825,-5.24089 14.12761,0 26.0905,6.60807 11.96289,6.60808 18.45703,18.45704 6.60807,11.73502 6.60807,24.7233 0,20.62175 -14.8112,35.31901 -14.69726,14.58333 -36.23046,14.58333 -25.63477,0 -41.58529,-20.8496 v 57.64973 h 23.24219 q 3.41797,0 4.89909,1.25326 1.48112,1.36719 1.48112,3.5319 0,2.05078 -1.48112,3.41797 -1.48112,1.36719 -4.89909,1.36719 h -45.68685 q -3.41797,0 -4.89909,-1.36719 -1.48112,-1.25326 -1.48112,-3.41797 0,-2.16471 1.48112,-3.5319 1.48112,-1.25326 4.89909,-1.25326 h 12.87435 V 768.23366 h -12.87435 q -3.41797,0 -4.89909,-1.36718 -1.48112,-1.36719 -1.48112,-3.5319 0,-2.05078 1.48112,-3.41797 1.48112,-1.36719 4.89909,-1.36719 z m 82.94271,46.37044 q 0,-16.52018 -12.07683,-28.25521 -11.96289,-11.84895 -29.28059,-11.84895 -17.43164,0 -29.50847,11.84895 -12.07682,11.84896 -12.07682,28.25521 0,16.52018 12.07682,28.36914 12.07683,11.84896 29.50847,11.84896 17.20377,0 29.28059,-11.73503 12.07683,-11.84895 12.07683,-28.48307 z"
           style="font-style:normal;font-variant:normal;font-weight:normal;font-stretch:normal;font-size:233.33332825px;font-family:'Courier New';-inkscape-font-specification:'Courier New';letter-spacing:27px;word-spacing:0px;fill:#ffffff;fill-opacity:1"
           id="path866" />
        <path
           d="M 772.51694,810.16075 H 674.9909 q 2.50651,18.57096 15.49479,29.96419 13.10221,11.2793 32.35677,11.2793 10.70964,0 22.44466,-3.5319 11.73503,-3.53191 19.14063,-9.34245 2.16471,-1.70899 3.75976,-1.70899 1.82292,0 3.19011,1.48112 1.36718,1.36719 1.36718,3.30404 0,1.93685 -1.82291,3.75976 -5.46875,5.69662 -19.48242,10.70964 -13.89974,4.89909 -28.59701,4.89909 -24.60937,0 -41.12956,-16.06445 -16.40625,-16.17839 -16.40625,-39.07878 0,-20.84961 15.38086,-35.77474 15.4948,-14.92513 38.28125,-14.92513 23.47005,0 38.62305,15.38086 15.15299,15.26693 14.92513,39.64844 z m -9.68425,-9.68425 q -2.8483,-15.83659 -15.03906,-25.74869 -12.07682,-9.91211 -28.82487,-9.91211 -16.74804,0 -28.82487,9.79817 -12.07682,9.79818 -15.03906,25.86263 z"
           style="font-style:normal;font-variant:normal;font-weight:normal;font-stretch:normal;font-size:233.33332825px;font-family:'Courier New';-inkscape-font-specification:'Courier New';letter-spacing:27px;word-spacing:0px;fill:#ffffff;fill-opacity:1"
           id="path868" />
        <path
           d="m 876.19333,758.54942 v 24.15365 q 18.6849,-16.86198 27.91341,-21.64714 9.34245,-4.89909 17.20378,-4.89909 8.54492,0 15.83659,5.81055 7.4056,5.69661 7.4056,8.65885 0,2.16472 -1.48112,3.64584 -1.36719,1.36718 -3.53191,1.36718 -1.13932,0 -1.93684,-0.34179 -0.79753,-0.45573 -2.96224,-2.62045 -3.98763,-3.98763 -6.94987,-5.46875 -2.96224,-1.48112 -5.81055,-1.48112 -6.26628,0 -15.15299,5.01303 -8.77279,5.01302 -30.53386,24.49544 v 52.40885 h 42.38281 q 3.5319,0 5.01302,1.36719 1.48112,1.25325 1.48112,3.41797 0,2.05078 -1.48112,3.41797 -1.48112,1.36718 -5.01302,1.36718 h -75.08137 q -3.41797,0 -4.89909,-1.25325 -1.48112,-1.36719 -1.48112,-3.41797 0,-1.93685 1.36718,-3.19011 1.48112,-1.36718 5.01303,-1.36718 h 23.12825 v -79.75261 h -17.65951 q -3.41796,0 -4.89908,-1.36718 -1.48112,-1.36719 -1.48112,-3.5319 0,-2.05078 1.36718,-3.41797 1.48112,-1.36719 5.01302,-1.36719 z"
           style="font-style:normal;font-variant:normal;font-weight:normal;font-stretch:normal;font-size:233.33332825px;font-family:'Courier New';-inkscape-font-specification:'Courier New';letter-spacing:27px;word-spacing:0px;fill:#ffffff;fill-opacity:1"
           id="path870" />
        <path
           d="m 1082.067,857.21478 v -13.7858 q -20.8496,17.54557 -44.5475,17.54557 -17.2038,0 -26.888,-8.65886 -9.6842,-8.77278 -9.6842,-21.41927 0,-13.89974 12.7604,-24.26757 12.7604,-10.36784 37.2558,-10.36784 6.6081,0 14.3555,0.91146 7.7474,0.79752 16.748,2.62044 v -15.49479 q 0,-7.86133 -7.2916,-13.67188 -7.2917,-5.81054 -21.875,-5.81054 -11.1654,0 -31.3314,6.49414 -3.6458,1.13932 -4.6712,1.13932 -1.8229,0 -3.1901,-1.36719 -1.2533,-1.36719 -1.2533,-3.41797 0,-1.93685 1.1393,-3.07617 1.5951,-1.70898 12.8744,-4.67122 17.7734,-4.78516 26.888,-4.78516 18.1152,0 28.2552,9.00065 10.14,8.88672 10.14,20.16602 v 63.34635 h 12.7604 q 3.5319,0 5.013,1.36719 1.4812,1.25325 1.4812,3.41797 0,2.05078 -1.4812,3.41797 -1.4811,1.36718 -5.013,1.36718 z m 0,-47.62369 q -6.722,-1.93685 -14.2415,-2.84831 -7.5195,-0.91146 -15.8366,-0.91146 -20.8496,0 -32.5846,9.00065 -8.8867,6.72201 -8.8867,16.06445 0,8.65886 6.722,14.58334 6.8359,5.92448 19.8242,5.92448 12.4186,0 23.0143,-4.89909 10.7097,-5.01302 21.9889,-15.83659 z"
           style="font-style:normal;font-variant:normal;font-weight:normal;font-stretch:normal;font-size:233.33332825px;font-family:'Courier New';-inkscape-font-specification:'Courier New';letter-spacing:27px;word-spacing:0px;fill:#ffffff;fill-opacity:1"
           id="path872" />
        <path
           d="m 1201.808,758.54942 h 51.9531 q 3.4179,0 4.8991,1.36719 1.4811,1.36719 1.4811,3.5319 0,2.05078 -1.4811,3.41797 -1.4812,1.36718 -4.8991,1.36718 h -51.9531 v 63.68815 q 0,8.31706 6.608,13.89974 6.722,5.58269 19.5964,5.58269 9.6842,0 20.9635,-2.84831 11.2793,-2.96224 17.5456,-6.60807 2.2786,-1.48112 3.7598,-1.48112 1.8229,0 3.1901,1.48112 1.3672,1.36718 1.3672,3.30403 0,1.70899 -1.4812,3.19011 -3.6458,3.75976 -17.7734,8.20312 -14.0137,4.32943 -26.888,4.32943 -16.7481,0 -26.6602,-7.86133 -9.9121,-7.86133 -9.9121,-21.19141 v -63.68815 h -17.6595 q -3.418,0 -4.8991,-1.36718 -1.4811,-1.36719 -1.4811,-3.5319 0,-2.05078 1.4811,-3.41797 1.4811,-1.36719 4.8991,-1.36719 h 17.6595 v -28.25521 q 0,-3.41797 1.3672,-4.89909 1.3672,-1.48112 3.418,-1.48112 2.1647,0 3.5319,1.48112 1.3672,1.48112 1.3672,4.89909 z"
           style="font-style:normal;font-variant:normal;font-weight:normal;font-stretch:normal;font-size:233.33332825px;font-family:'Courier New';-inkscape-font-specification:'Courier New';letter-spacing:27px;word-spacing:0px;fill:#ffffff;fill-opacity:1"
           id="path874" />
        <path
           d="m 1393.0983,709.4446 v 24.72331 h -14.1276 V 709.4446 Z m 0.3418,49.10482 v 89.09505 h 37.5976 q 3.5319,0 5.0131,1.36719 1.4811,1.25325 1.4811,3.41797 0,2.05078 -1.4811,3.41797 -1.4812,1.36718 -5.0131,1.36718 h -84.7656 q -3.418,0 -4.8991,-1.36718 -1.4811,-1.36719 -1.4811,-3.41797 0,-2.16472 1.4811,-3.41797 1.4811,-1.36719 4.8991,-1.36719 h 37.5977 v -79.41081 h -27.9134 q -3.418,0 -5.0131,-1.36718 -1.4811,-1.36719 -1.4811,-3.41797 0,-2.16471 1.4811,-3.5319 1.4812,-1.36719 5.0131,-1.36719 z"
           style="font-style:normal;font-variant:normal;font-weight:normal;font-stretch:normal;font-size:233.33332825px;font-family:'Courier New';-inkscape-font-specification:'Courier New';letter-spacing:27px;word-spacing:0px;fill:#ffffff;fill-opacity:1"
           id="path876" />
        <path
           d="m 1563.6529,857.21478 h -16.1784 l -39.3066,-88.98112 h -9.7982 q -3.4179,0 -4.8991,-1.36718 -1.4811,-1.36719 -1.4811,-3.5319 0,-2.05078 1.4811,-3.41797 1.4812,-1.36719 4.8991,-1.36719 h 35.8887 q 3.418,0 4.8991,1.36719 1.4811,1.36719 1.4811,3.5319 0,2.05078 -1.4811,3.41797 -1.4811,1.36718 -4.8991,1.36718 h -15.8366 l 35.0912,79.41081 h 4.2154 l 34.4076,-79.41081 h -15.9505 q -3.418,0 -4.8991,-1.36718 -1.4811,-1.36719 -1.4811,-3.5319 0,-2.05078 1.4811,-3.41797 1.4811,-1.36719 4.8991,-1.36719 h 36.0026 q 3.5319,0 4.8991,1.36719 1.4811,1.36719 1.4811,3.5319 0,2.05078 -1.4811,3.41797 -1.3672,1.36718 -4.8991,1.36718 h -9.6843 z"
           style="font-style:normal;font-variant:normal;font-weight:normal;font-stretch:normal;font-size:233.33332825px;font-family:'Courier New';-inkscape-font-specification:'Courier New';letter-spacing:27px;word-spacing:0px;fill:#ffffff;fill-opacity:1"
           id="path878" />
        <path
           d="m 1749.7024,857.21478 v -13.7858 q -20.8496,17.54557 -44.5476,17.54557 -17.2037,0 -26.888,-8.65886 -9.6842,-8.77278 -9.6842,-21.41927 0,-13.89974 12.7604,-24.26757 12.7604,-10.36784 37.2558,-10.36784 6.6081,0 14.3555,0.91146 7.7474,0.79752 16.7481,2.62044 v -15.49479 q 0,-7.86133 -7.2917,-13.67188 -7.2917,-5.81054 -21.875,-5.81054 -11.1654,0 -31.3314,6.49414 -3.6458,1.13932 -4.6712,1.13932 -1.8229,0 -3.1901,-1.36719 -1.2533,-1.36719 -1.2533,-3.41797 0,-1.93685 1.1394,-3.07617 1.595,-1.70898 12.8743,-4.67122 17.7734,-4.78516 26.888,-4.78516 18.1153,0 28.2552,9.00065 10.14,8.88672 10.14,20.16602 v 63.34635 h 12.7604 q 3.5319,0 5.013,1.36719 1.4812,1.25325 1.4812,3.41797 0,2.05078 -1.4812,3.41797 -1.4811,1.36718 -5.013,1.36718 z m 0,-47.62369 q -6.722,-1.93685 -14.2416,-2.84831 -7.5195,-0.91146 -15.8366,-0.91146 -20.8496,0 -32.5846,9.00065 -8.8867,6.72201 -8.8867,16.06445 0,8.65886 6.722,14.58334 6.8359,5.92448 19.8242,5.92448 12.4186,0 23.0143,-4.89909 10.7097,-5.01302 21.989,-15.83659 z"
           style="font-style:normal;font-variant:normal;font-weight:normal;font-stretch:normal;font-size:233.33332825px;font-family:'Courier New';-inkscape-font-specification:'Courier New';letter-spacing:27px;word-spacing:0px;fill:#ffffff;fill-opacity:1"
           id="path880" />
      </g>
    </g>
  </g>
</svg>
